{"title":"Ang Laga De Song - Ram-leela ft. Deepika &amp; Ranveer HD 1080p ","uid":9181869,"size":59820592,"categoryP":"video","categoryS":"music_videos","magnet":"?xt=urn:btih:d03d9b102cac318c3cbcb2287f17d447edf60290&amp;dn=Ang+Laga+De+Song+-+Ram-leela+ft.+Deepika+%26amp%3B+Ranveer+HD+1080p+&amp;tr=udp%3A%2F%2Ftracker.openbittorrent.com%3A80&amp;tr=udp%3A%2F%2Fopen.demonii.com%3A1337&amp;tr=udp%3A%2F%2Ftracker.coppersurfer.tk%3A6969&amp;tr=udp%3A%2F%2Fexodus.desync.com%3A6969","seeders":2,"leechers":2,"uploader":"Palash995","files":10,"time":1384239729,"description":"Ang Laga De Song - Ram-leela ft. Deepika &amp; Ranveer HD 1080p {GreatPalash}\n\nWitness the sizzling chemistry between Ranveer Singh &amp; Deepika Padukone in &quot;Ang Laga De&quot; from Ram-leela. The song is sung by Aditi Paul &amp; Shail Hada.\n\nMusic: Sanjay Leela Bhansali\nLyrics: Siddharth - Garima\n\nAng Laga De Lyrics:\n\nAng lagaa de re\nMohe rang lagaa de re..\n\nAng lagaa de re\nMohe rang lagaa de re\nMain toh teri joganiya\nTu jog lagaa de re\n\nRam ratan dhan, lagan magan mann,\nTann mora chandan re\nUjri kori preet pe aa\nSatrang lagaa de re\n\nRaat banjar si hai\nKale khanjar si hai \nTere seene ki lau\nMere andar bhi hai\n\nTu hawaa de ise\nToh mera tann jale\nJalaa de re sang jalaa de re\nMohe ang laga de re\nMain toh teri joganiya\nTu jog lagaa de re\n\nEros International &amp; Bhansali Productions presents 'Ram-leela' a Sanjay Leela Bhansali film featuring Ranveer Singh &amp; Deepika Padukone. The film is produced by Kishore Lulla &amp; Sanjay Leela Bhansali &amp; is all set to release in theaters on 15th November, 2013.\n\nScreenshots:-\n &lt;a href=&quot;\nhttp://img199.imageshack.us/img199/8015/ama3.jpg&quot; rel=&quot;nofollow&quot; target=&quot;_NEW&quot;&gt;\nhttp://img199.imageshack.us/img199/8015/ama3.jpg&lt;/a&gt;\n\n &lt;a href=&quot;\nhttp://img707.imageshack.us/img707/6835/5jgy.jpg&quot; rel=&quot;nofollow&quot; target=&quot;_NEW&quot;&gt;\nhttp://img707.imageshack.us/img707/6835/5jgy.jpg&lt;/a&gt;\n &lt;a href=&quot;\nhttp://img40.imageshack.us/img40/9678/4e1d.jpg&quot; rel=&quot;nofollow&quot; target=&quot;_NEW&quot;&gt;\nhttp://img40.imageshack.us/img40/9678/4e1d.jpg&lt;/a&gt;\n\nMedia Info:-\n\nGeneral\nComplete name                            : Ang Laga De Song - Ram-leela ft. Deepika &amp; Ranveer HD 1080p {GreatPalash}.mp4\nFormat                                   : MPEG-4\nFormat profile                           : Base Media\nCodec ID                                 : isom\nFile size                                : 56.6 MiB\nDuration                                 : 2mn 14s\nOverall bit rate mode                    : Variable\nOverall bit rate                         : 3520 Kbps\n\nVideo\nID                                       : 1\nFormat                                   : AVC\nFormat/Info                              : Advanced Video Codec\nFormat profile                           : &lt;a class=&quot;__cf_email__&quot; href=&quot;/cdn-cgi/l/email-protection&quot; data-cfemail=&quot;3078595758707c041e01&quot;&gt;[email&amp;#160;protected]&lt;/a&gt;&lt;script cf-hash='f9e31' type=&quot;text/javascript&quot;&gt;\n/* &lt;![CDATA[ */!function(){try{var t=&quot;currentScript&quot;in document?document.currentScript:function(){for(var t=document.getElementsByTagName(&quot;script&quot;),e=t.length;e--;)if(t[e].getAttribute(&quot;cf-hash&quot;))return t[e]}();if(t&amp;&amp;t.previousSibling){var e,r,n,i,c=t.previousSibling,a=c.getAttribute(&quot;data-cfemail&quot;);if(a){for(e=&quot;&quot;,r=parseInt(a.substr(0,2),16),n=2;a.length-n;n+=2)i=parseInt(a.substr(n,2),16)^r,e+=String.fromCharCode(i);e=document.createTextNode(e),c.parentNode.replaceChild(e,c)}}}catch(u){}}();/* ]]&gt; */&lt;/script&gt;\nFormat settings, CABAC                   : Yes\nFormat settings, ReFrames                : 3 frames\nCodec ID                                 : avc1\nCodec ID/Info                            : Advanced Video Coding\nDuration                                 : 2mn 14s\nBit rate mode                            : Variable\nBit rate                                 : 3 260 Kbps\nMaximum bit rate                         : 19.2 Mbps\nWidth                                    : 1920 pixels\nHeight                                   : 1080 pixels\nDisplay aspect ratio                     : 16:9\nFrame rate mode                          : Constant\nFrame rate                               : 25.000 fps\nStandard                                 : PAL\nColor space                              : YUV\nChroma subsampling                       : 4:2:0\nBit depth                                : 8 bits\nScan type                                : Progressive\nBits/(Pixel*Frame)                       : 0.063\nStream size                              : 52.4 MiB (93%)\n\nAudio\nID                                       : 2\nFormat                                   : AAC\nFormat/Info                              : Advanced Audio Codec\nFormat profile                           : LC\nCodec ID                                 : 40\nDuration                                 : 2mn 14s\nBit rate mode                            : Constant\nBit rate                                 : 254 Kbps\nChannel(s)                               : 2 channels\nChannel positions                        : Front: L R\nSampling rate                            : 44.1 KHz\nCompression mode                         : Lossy\nStream size                              : 4.08 MiB (7%)\n &lt;a href=&quot;\nhttp://imageshack.us/a/img89/4822/zka.gif&quot; rel=&quot;nofollow&quot; target=&quot;_NEW&quot;&gt;\nhttp://imageshack.us/a/img89/4822/zka.gif&lt;/a&gt;\n &lt;a href=&quot;\nhttp://imageshack.us/a/img200/185/tj8.gif&quot; rel=&quot;nofollow&quot; target=&quot;_NEW&quot;&gt;\nhttp://imageshack.us/a/img200/185/tj8.gif&lt;/a&gt;\n &lt;a href=&quot;\nhttp://imageshack.us/a/img593/9603/ua8.gif&quot; rel=&quot;nofollow&quot; target=&quot;_NEW&quot;&gt;\nhttp://imageshack.us/a/img593/9603/ua8.gif&lt;/a&gt;\n &lt;a href=&quot;\nhttp://imageshack.us/a/img707/5608/ysmp.png&quot; rel=&quot;nofollow&quot; target=&quot;_NEW&quot;&gt;\nhttp://imageshack.us/a/img707/5608/ysmp.png&lt;/a&gt;\n &lt;a href=&quot;\nhttp://imageshack.us/a/img42/9563/3nt.gif&quot; rel=&quot;nofollow&quot; target=&quot;_NEW&quot;&gt;\nhttp://imageshack.us/a/img42/9563/3nt.gif&lt;/a&gt;","torrent":{"xt":"urn:btih:d03d9b102cac318c3cbcb2287f17d447edf60290","amp;dn":"Ang+Laga+De+Song+-+Ram-leela+ft.+Deepika+%26amp%3B+Ranveer+HD+1080p+","amp;tr":["udp%3A%2F%2Ftracker.openbittorrent.com%3A80","udp%3A%2F%2Fopen.demonii.com%3A1337","udp%3A%2F%2Ftracker.coppersurfer.tk%3A6969","udp%3A%2F%2Fexodus.desync.com%3A6969"],"infoHash":"d03d9b102cac318c3cbcb2287f17d447edf60290","infoHashBuffer":{"type":"Buffer","data":[208,61,155,16,44,172,49,140,60,188,178,40,127,23,212,71,237,246,2,144]},"announce":[],"urlList":[]}}